<?xml version="1.0" encoding="UTF-8"?>
<svg version="1.1" xmlns="http://www.w3.org/2000/svg" width="592" height="302">
<path d="M0 0 C195.36 0 390.72 0 592 0 C592 99.66 592 199.32 592 302 C396.64 302 201.28 302 0 302 C0 202.34 0 102.68 0 0 Z " fill="#FAFAFB" transform="translate(0,0)"/>
<path d="M0 0 C2.625 2.3125 2.625 2.3125 4 4 C2.88625 3.67 1.7725 3.34 0.625 3 C-10.00639664 0.64121152 -22.56258992 0.93119338 -33 4 C-33.96164062 4.27972656 -34.92328125 4.55945312 -35.9140625 4.84765625 C-41.93713153 6.73081834 -47.48067533 9.06081587 -53.0390625 12.046875 C-55 13 -55 13 -57 13 C-57 13.66 -57 14.32 -57 15 C-38.85 15 -20.7 15 -2 15 C-2.33 17.97 -2.66 20.94 -3 24 C-3.06953047 25.75022403 -3.10925603 27.50234007 -3.09765625 29.25390625 C-3.09443359 30.12724609 -3.09121094 31.00058594 -3.08789062 31.90039062 C-3.07951172 32.77888672 -3.07113281 33.65738281 -3.0625 34.5625 C-3.05573242 35.93245117 -3.05573242 35.93245117 -3.04882812 37.33007812 C-3.0371874 39.55345738 -3.02083851 41.77669121 -3 44 C-4.84464844 43.98646484 -4.84464844 43.98646484 -6.7265625 43.97265625 C-15.46649205 43.76705425 -15.46649205 43.76705425 -23.49609375 46.51953125 C-25.79854858 49.246878 -26.8722515 51.61675451 -28 55 C-28.66 55 -29.32 55 -30 55 C-30.268125 55.5775 -30.53625 56.155 -30.8125 56.75 C-32 59 -32 59 -33.5625 61 C-35.04856895 63.0675742 -35.46367402 64.54822409 -36 67 C-35.44147339 66.98223511 -34.88294678 66.96447021 -34.30749512 66.94616699 C-28.46745977 66.76847709 -22.62819774 66.64823923 -16.78613281 66.56054688 C-14.60938301 66.52044034 -12.43284705 66.46593851 -10.25683594 66.39648438 C-7.11860337 66.29886323 -3.98322951 66.25394624 -0.84375 66.21875 C0.60360535 66.15681458 0.60360535 66.15681458 2.0802002 66.09362793 C6.22511326 66.09090662 8.93504897 66.19964263 12.31526184 68.74002075 C14.43481445 70.88134766 14.43481445 70.88134766 16.25166321 73.01577759 C18.93932128 76.06605451 22.17898166 77.89490932 25.6875 79.875 C26.32494141 80.25140625 26.96238281 80.6278125 27.61914062 81.015625 C30.98799972 82.97644701 34.33550566 84.66873055 38 86 C37.690625 86.598125 37.38125 87.19625 37.0625 87.8125 C35.89790296 90.08956772 35.89790296 90.08956772 35 93 C36.31355469 92.95359375 37.62710938 92.9071875 38.98046875 92.859375 C40.71612304 92.82184734 42.45180199 92.78544825 44.1875 92.75 C45.05181641 92.71648437 45.91613281 92.68296875 46.80664062 92.6484375 C50.99041249 92.58431839 53.38714521 92.6481328 57.08203125 94.76953125 C59.390301 97.45389383 59.52439642 99.40357528 59.46875 102.90234375 C58.32116598 108.03778225 54.48637302 112.11805351 51.3125 116.1875 C50.91611328 116.70119141 50.51972656 117.21488281 50.11132812 117.74414062 C47.49596237 121.12078656 44.83256133 124.45665104 42.15625 127.78515625 C38.0778106 132.87420789 34.12261277 138.04976958 30.1875 143.25 C25.18609803 149.83831297 20.15250656 156.39499454 15.02124023 162.88256836 C11.38352747 167.4900643 7.81254735 172.14672852 4.25 176.8125 C3.69393066 177.53687256 3.13786133 178.26124512 2.56494141 179.00756836 C0.30245755 181.95832363 -1.93656144 184.91116239 -4.09765625 187.9375 C-4.66355469 188.72125 -5.22945312 189.505 -5.8125 190.3125 C-6.25207031 190.94800781 -6.69164062 191.58351562 -7.14453125 192.23828125 C-13.66187091 198.42632374 -20.59883877 198.5641373 -29.10742188 198.45410156 C-30.2985257 198.45468567 -31.48962952 198.45526978 -32.71682739 198.45587158 C-35.96033276 198.4535735 -39.2031346 198.43360828 -42.44650078 198.40557575 C-45.84438861 198.38045472 -49.24229242 198.37821172 -52.64025879 198.37347412 C-59.0645805 198.36107556 -65.48862771 198.32829676 -71.91282892 198.28807616 C-79.23085325 198.24326074 -86.54889116 198.22134696 -93.8670187 198.20129442 C-108.91149835 198.15956092 -123.95572163 198.08927026 -139 198 C-139 198.99 -139 199.98 -139 201 C-138.41089844 201.27070313 -137.82179688 201.54140625 -137.21484375 201.8203125 C-135.03173458 202.98309728 -133.4316432 204.26811965 -131.5625 205.875 C-123.05858257 212.32787983 -112.39279682 213.6254848 -102 214 C-112.60547375 219.80253506 -127.48640581 219.57672274 -138.8125 216.375 C-151.98901665 211.73015692 -161.59087661 203.70637228 -168.0078125 191.16015625 C-179.54014446 166.05236264 -172.87187484 135.02950048 -163.953125 110.0703125 C-145.38347395 62.56968338 -108.47007747 20.34734748 -62 -1 C-58.0411321 -2.65504511 -54.15846206 -3.95603463 -50 -5 C-48.92105469 -5.29390625 -47.84210938 -5.5878125 -46.73046875 -5.890625 C-30.0303814 -10.01410336 -14.9610519 -8.90018781 0 0 Z " fill="#113B90" transform="translate(422,44)"/>
<path d="M0 0 C3.05270463 0.15811388 3.05270463 0.15811388 6 -1 C9.20395416 -1 11.09399739 -0.25664978 14 1 C13.46917304 6.28703655 10.7343807 10.3732639 8.125 14.875 C5.08302997 20.16118999 2.30384679 25.35009002 0 31 C-1.03678302 33.26662219 -2.08056419 35.52958357 -3.1328125 37.7890625 C-4.23268546 40.40302253 -4.23268546 40.40302253 -5 45 C14.14 45 33.28 45 53 45 C52.67 47.97 52.34 50.94 52 54 C51.92507358 56.55249344 51.89165935 59.1065857 51.90234375 61.66015625 C51.9037587 62.33549911 51.90517365 63.01084198 51.90663147 63.70664978 C51.91214783 65.82531514 51.92468325 67.94386757 51.9375 70.0625 C51.94252586 71.51497241 51.94708684 72.96744651 51.95117188 74.41992188 C51.96208958 77.94665015 51.97929414 81.47331402 52 85 C59.02180169 85.32280198 66.04415668 85.61859397 73.06835938 85.88427734 C75.43728547 85.97778758 77.80413191 86.0886441 80.171875 86.20703125 C86.85678595 86.42293148 92.57257028 86.23987276 98 82 C101.14403079 78.52194907 103.86937367 74.804738 106.57421875 70.98583984 C109.21767821 67.30400778 111.99315662 63.72220041 114.75 60.125 C115.28077148 59.42415283 115.81154297 58.72330566 116.35839844 58.0012207 C117.38908507 56.64590962 118.43000901 55.29831451 119.48168945 53.95922852 C120.4942263 52.65265057 121.47256095 51.31884355 122.41479492 49.96069336 C125.84103326 45.33113336 125.84103326 45.33113336 129.01318359 44.42480469 C131.30484146 44.22996531 133.51430434 44.23654837 135.8125 44.3125 C145.5280117 44.30211674 145.5280117 44.30211674 154 40 C158.41213676 35.39269763 162.55149562 30.5522846 165.70703125 24.9921875 C167.61351255 21.85787866 168.92721025 20.04268191 172 18 C179.29348312 16.40349654 188.53189369 15.96485016 195.08203125 19.80859375 C197.40845938 22.46669188 197.52421921 24.41471721 197.46875 27.90234375 C196.32116598 33.03778225 192.48637302 37.11805351 189.3125 41.1875 C188.71791992 41.95803711 188.71791992 41.95803711 188.11132812 42.74414062 C185.49596237 46.12078656 182.83256133 49.45665104 180.15625 52.78515625 C176.0778106 57.87420789 172.12261277 63.04976958 168.1875 68.25 C163.18609803 74.83831297 158.15250656 81.39499454 153.02124023 87.88256836 C149.38352747 92.4900643 145.81254735 97.14672852 142.25 101.8125 C141.69393066 102.53687256 141.13786133 103.26124512 140.56494141 104.00756836 C138.30245755 106.95832363 136.06343856 109.91116239 133.90234375 112.9375 C133.33644531 113.72125 132.77054688 114.505 132.1875 115.3125 C131.52814453 116.26576172 131.52814453 116.26576172 130.85546875 117.23828125 C124.33812909 123.42632374 117.40116123 123.5641373 108.89257812 123.45410156 C107.7014743 123.45468567 106.51037048 123.45526978 105.28317261 123.45587158 C102.03966724 123.4535735 98.7968654 123.43360828 95.55349922 123.40557575 C92.15561139 123.38045472 88.75770758 123.37821172 85.35974121 123.37347412 C78.9354195 123.36107556 72.51137229 123.32829676 66.08717108 123.28807616 C58.76914675 123.24326074 51.45110884 123.22134696 44.1329813 123.20129442 C29.08850165 123.15956092 14.04427837 123.08927026 -1 123 C-1 123.99 -1 124.98 -1 126 C-0.11634766 126.40605469 -0.11634766 126.40605469 0.78515625 126.8203125 C2.96826542 127.98309728 4.5683568 129.26811965 6.4375 130.875 C14.94141743 137.32787983 25.60720318 138.6254848 36 139 C25.39452625 144.80253506 10.51359419 144.57672274 -0.8125 141.375 C-13.98901665 136.73015692 -23.59087661 128.70637228 -30.0078125 116.16015625 C-41.54014446 91.05236264 -34.87187484 60.02950048 -25.953125 35.0703125 C-23.262013 28.18652601 -19.87222142 21.63155146 -16.5 15.0625 C-16.03706543 14.14960205 -15.57413086 13.2367041 -15.09716797 12.29614258 C-7.38071627 -2.46023876 -7.38071627 -2.46023876 0 0 Z " fill="#073587" transform="translate(284,119)"/>
<path d="M0 0 C71.94 0 143.88 0 218 0 C217.1960229 3.21590841 216.60954732 4.93738617 214.99609375 7.66015625 C214.58907227 8.36140625 214.18205078 9.06265625 213.76269531 9.78515625 C213.10672363 10.91244141 213.10672363 10.91244141 212.4375 12.0625 C205.46286958 24.35947941 200.16410823 37.18763699 195.625 50.5625 C195.38620117 51.26375 195.14740234 51.965 194.90136719 52.6875 C191.63343155 62.69466615 190.6512143 72.19852469 190.68432617 82.7121582 C190.68747941 84.79887557 190.66397074 86.88416052 190.63867188 88.97070312 C190.6032353 96.47914594 191.2093603 103.45206855 193.15942383 110.7487793 C194.29224274 115.13035043 195.14184197 119.5576671 196 124 C188.13308783 124.1159815 180.26637686 124.20475893 172.39882374 124.25906086 C168.74531107 124.28512695 165.0923844 124.32046776 161.43920898 124.37719727 C157.91191052 124.43162765 154.38517473 124.46144302 150.85748863 124.47438622 C148.86043598 124.48808639 146.86360894 124.52710294 144.86689758 124.56648254 C134.76896393 124.56960612 134.76896393 124.56960612 131.69799805 121.53198242 C131.13765869 120.69642822 130.57731934 119.86087402 130 119 C129.67 118.67 129.34 118.34 129 118 C129.2325424 111.78336651 131.25866872 108.65971302 135.125 104.125 C136.06555752 102.98214379 137.00565394 101.83890795 137.9453125 100.6953125 C138.42774414 100.1168457 138.91017578 99.53837891 139.40722656 98.94238281 C142.34835645 95.35568303 145.16813844 91.67317391 148 88 C146.03994019 88.03927612 146.03994019 88.03927612 144.0402832 88.0793457 C139.18564012 88.16994324 134.33107155 88.22728445 129.47583008 88.2746582 C127.3757673 88.29978051 125.27579177 88.33388458 123.17602539 88.37719727 C120.1548916 88.43794871 117.13491504 88.46623263 114.11328125 88.48828125 C113.17664139 88.51408768 112.24000153 88.5398941 111.27497864 88.56648254 C106.72555085 88.56843376 104.658729 88.48833665 100.90893555 85.70849609 C98.83226631 82.76201079 98.24023323 80.70948285 98.484375 77.09228516 C99.46521424 73.11226987 101.92674998 70.29350367 104.5 67.1875 C105.60089948 65.79347319 106.70115731 64.39893943 107.80078125 63.00390625 C108.34428223 62.32730957 108.8877832 61.65071289 109.44775391 60.95361328 C111.60961076 58.23276104 113.65077626 55.4407984 115.6875 52.625 C116.31011719 51.77164063 116.93273437 50.91828125 117.57421875 50.0390625 C119.02810788 48.06548402 119.02810788 48.06548402 120 46 C119.34933563 46.00666183 118.69867126 46.01332367 118.02828979 46.02018738 C111.24742582 46.08663164 104.46665457 46.13183853 97.68554688 46.16479492 C95.15588626 46.17986786 92.62625171 46.20032961 90.09667969 46.22631836 C86.45761677 46.26276616 82.81889984 46.2797417 79.1796875 46.29296875 C78.05134491 46.30845261 76.92300232 46.32393646 75.76046753 46.33988953 C70.11014573 46.34109664 65.82812457 46.3060853 61 43 C59.1015625 40.87890625 59.1015625 40.87890625 57.625 38.5625 C57.12226562 37.80066406 56.61953125 37.03882813 56.1015625 36.25390625 C55 34 55 34 55 30 C56.27667038 29.99120064 56.27667038 29.99120064 57.57913208 29.98222351 C65.6124617 29.92424398 73.64551485 29.85213714 81.67857552 29.76428509 C85.80815797 29.71961767 89.93764261 29.68035373 94.06738281 29.65356445 C98.05518496 29.627495 102.04260993 29.5870673 106.03017807 29.53681374 C107.54910453 29.52016954 109.0680962 29.50864003 110.58710098 29.50238609 C112.72008763 29.49271792 114.85211468 29.46462874 116.98486328 29.43237305 C118.1973172 29.42126999 119.40977112 29.41016693 120.65896606 29.39872742 C124.39863464 28.95242594 126.8004399 27.96327704 130 26 C132.30271657 23.01269202 133.80884095 20.57347714 135 17 C134.06378044 17.00276538 134.06378044 17.00276538 133.10864735 17.00558662 C117.91863643 17.04976397 102.72864523 17.08285574 87.53858662 17.10362434 C80.1927745 17.11393495 72.84700528 17.12799115 65.5012207 17.15087891 C59.09830118 17.17081939 52.69541272 17.18371801 46.292463 17.18817699 C42.90245384 17.19078326 39.51253354 17.19690461 36.12255287 17.21146011 C32.33726317 17.22594278 28.55215858 17.22797926 24.7668457 17.22705078 C23.64403198 17.23424133 22.52121826 17.24143188 21.36437988 17.24884033 C20.33097977 17.246091 19.29757965 17.24334167 18.23286438 17.24050903 C17.33780339 17.24235262 16.4427424 17.24419621 15.52055836 17.24609566 C9.79691573 16.68726567 6.78442898 14.18278993 3 10 C2.401875 9.360625 1.80375 8.72125 1.1875 8.0625 C0 6 0 6 0 0 Z " fill="#85D5D8" transform="translate(42,118)"/>
<path d="M0 0 C3.21382531 0.70904975 5.00907661 2.02198446 7.15673828 4.47583008 C8.1449582 12.25806198 5.45235945 15.92800862 0.72900391 22.0480957 C0.31328125 22.58112305 -0.10244141 23.11415039 -0.53076172 23.66333008 C-0.92714844 24.17702148 -1.32353516 24.69071289 -1.73193359 25.2199707 C-4.34729935 28.59661663 -7.01070039 31.93248112 -9.68701172 35.26098633 C-13.76545112 40.35003797 -17.72064895 45.52559966 -21.65576172 50.72583008 C-26.65716369 57.31414305 -31.69075515 63.87082462 -36.82202148 70.35839844 C-40.45973324 74.96589309 -44.03079062 79.62250152 -47.59326172 84.28833008 C-48.42627808 85.37380127 -48.42627808 85.37380127 -49.27612305 86.48120117 C-51.54854814 89.44565034 -53.79838021 92.41327545 -55.97607422 95.44848633 C-56.55099609 96.24125977 -57.12591797 97.0340332 -57.71826172 97.85083008 C-58.39501953 98.82149414 -58.39501953 98.82149414 -59.08544922 99.81176758 C-63.67770146 104.1590997 -69.06878073 104.84895564 -75.15551758 104.81640625 C-75.84904327 104.81684433 -76.54256897 104.81728241 -77.2571106 104.81773376 C-79.52440639 104.81566204 -81.79094063 104.79240938 -84.05810547 104.76879883 C-85.63993425 104.76319708 -87.22176826 104.75892972 -88.80360413 104.75593567 C-92.94815679 104.74453236 -97.09238939 104.71510467 -101.23681641 104.68182373 C-105.47342602 104.65102496 -109.71008782 104.63740946 -113.94677734 104.62231445 C-122.24575164 104.59023011 -130.54446676 104.53908914 -138.84326172 104.47583008 C-140.97668262 100.59389299 -141.07508718 97.75853623 -141.03857422 93.30395508 C-141.03574432 92.62153748 -141.03291443 91.93911987 -141.02999878 91.23602295 C-141.0188427 89.06577701 -140.99374729 86.89595037 -140.96826172 84.72583008 C-140.95822597 83.25057564 -140.94910116 81.77531471 -140.94091797 80.30004883 C-140.91891859 76.69184066 -140.88442055 73.08387632 -140.84326172 69.47583008 C-139.67867432 69.46648437 -138.51408691 69.45713867 -137.31420898 69.44750977 C-132.95836322 69.40738179 -128.60320693 69.34156138 -124.24780273 69.26831055 C-122.36931268 69.24023244 -120.49070738 69.21895298 -118.61206055 69.20483398 C-115.89816843 69.18322083 -113.185643 69.13647961 -110.47216797 69.08520508 C-109.22941856 69.08336212 -109.22941856 69.08336212 -107.96156311 69.08148193 C-100.70913918 68.9027557 -94.42085515 67.08043422 -89.23388672 61.83911133 C-88.17427734 60.32897461 -88.17427734 60.32897461 -87.09326172 58.78833008 C-86.26070257 57.63542686 -85.42732443 56.48311477 -84.59326172 55.33129883 C-84.15626953 54.71432129 -83.71927734 54.09734375 -83.26904297 53.46166992 C-80.62558351 49.77983786 -77.8501051 46.19803049 -75.09326172 42.60083008 C-74.56249023 41.89998291 -74.03171875 41.19913574 -73.48486328 40.47705078 C-72.45417665 39.1217397 -71.41325271 37.77414459 -70.36157227 36.43505859 C-69.34903542 35.12848065 -68.37070077 33.79467363 -67.4284668 32.43652344 C-64.00222846 27.80696343 -64.00222846 27.80696343 -60.83007812 26.90063477 C-58.53842026 26.70579539 -56.32895737 26.71237845 -54.03076172 26.78833008 C-44.31525002 26.77794682 -44.31525002 26.77794682 -35.84326172 22.47583008 C-31.43112496 17.86852771 -27.2917661 13.02811468 -24.13623047 7.46801758 C-18.5337749 -1.74257683 -9.8683593 -1.08379102 0 0 Z " fill="#012C79" transform="translate(473.84326171875,136.524169921875)"/>
<path d="M0 0 C17.82 0 35.64 0 54 0 C53.67 2.97 53.34 5.94 53 9 C52.93046953 10.75022403 52.89074397 12.50234007 52.90234375 14.25390625 C52.90556641 15.12724609 52.90878906 16.00058594 52.91210938 16.90039062 C52.92048828 17.77888672 52.92886719 18.65738281 52.9375 19.5625 C52.94201172 20.47580078 52.94652344 21.38910156 52.95117188 22.33007812 C52.9628126 24.55345738 52.97916149 26.77669121 53 29 C51.15535156 28.98646484 51.15535156 28.98646484 49.2734375 28.97265625 C40.53350795 28.76705425 40.53350795 28.76705425 32.50390625 31.51953125 C30.20145142 34.246878 29.1277485 36.61675451 28 40 C27.34 40 26.68 40 26 40 C25.731875 40.5775 25.46375 41.155 25.1875 41.75 C24 44 24 44 22.4375 46 C20.95143105 48.0675742 20.53632598 49.54822409 20 52 C20.55852661 51.98223511 21.11705322 51.96447021 21.69250488 51.94616699 C27.53254023 51.76847709 33.37180226 51.64823923 39.21386719 51.56054688 C41.39061699 51.52044034 43.56715295 51.46593851 45.74316406 51.39648438 C48.88139663 51.29886323 52.01677049 51.25394624 55.15625 51.21875 C56.60360535 51.15681458 56.60360535 51.15681458 58.0802002 51.09362793 C62.22511326 51.09090662 64.93504897 51.19964263 68.31526184 53.74002075 C70.43481445 55.88134766 70.43481445 55.88134766 72.25166321 58.01577759 C74.93932128 61.06605451 78.17898166 62.89490932 81.6875 64.875 C82.32494141 65.25140625 82.96238281 65.6278125 83.61914062 66.015625 C86.98799972 67.97644701 90.33550566 69.66873055 94 71 C90.17247783 78.94946912 84.82423543 85.50941268 79.32763672 92.34082031 C78.20480584 93.74404919 77.10204394 95.16330119 76.00390625 96.5859375 C75.44574219 97.27945313 74.88757813 97.97296875 74.3125 98.6875 C73.85488281 99.26886719 73.39726562 99.85023438 72.92578125 100.44921875 C67.20222491 105.05824891 60.35886217 105.51641893 53.3125 105.75 C52.07016602 105.81380859 52.07016602 105.81380859 50.80273438 105.87890625 C44.68706207 106.14331482 44.68706207 106.14331482 41.55029297 105.48901367 C38.84325512 104.96994448 36.57733102 105.00332347 33.83203125 105.19140625 C32.85556641 105.24876953 31.87910156 105.30613281 30.87304688 105.36523438 C28.85187546 105.49550771 26.83102218 105.63082669 24.81054688 105.77148438 C18.2110859 106.14797821 12.40841357 105.63763703 6 104 C3.875 98.375 3.875 98.375 5 95 C4.33131686 91.88667752 4.33131686 91.88667752 1.9375 90.8125 C1.298125 90.544375 0.65875 90.27625 0 90 C0.45375 89.525625 0.9075 89.05125 1.375 88.5625 C3.64498779 84.98290387 4.53566611 81.20222173 5 77 C4.67 76.01 4.34 75.02 4 74 C4.33333333 72.33333333 4.66666667 70.66666667 5 69 C4.67 68.01 4.34 67.02 4 66 C4.33333333 64.33333333 4.66666667 62.66666667 5 61 C4.505 59.515 4.505 59.515 4 58 C4.33333333 56.33333333 4.66666667 54.66666667 5 53 C4.505 51.515 4.505 51.515 4 50 C4.33333333 48.33333333 4.66666667 46.66666667 5 45 C4.505 43.515 4.505 43.515 4 42 C4.33333333 40.33333333 4.66666667 38.66666667 5 37 C4.505 35.515 4.505 35.515 4 34 C4.33333333 32.33333333 4.66666667 30.66666667 5 29 C4.67 28.01 4.34 27.02 4 26 C4.33333333 24.33333333 4.66666667 22.66666667 5 21 C4.67 20.01 4.34 19.02 4 18 C4.33333333 16.33333333 4.66666667 14.66666667 5 13 C4.67 12.01 4.34 11.02 4 10 C4.42171013 7.18859911 5.09960162 4.70119513 6 2 C3.03 1.505 3.03 1.505 0 1 C0 0.67 0 0.34 0 0 Z " fill="#204399" transform="translate(366,59)"/>
<path d="M0 0 C24.75 0 49.5 0 75 0 C73.89477021 5.52614896 72.83191035 10.73961768 71.3984375 16.125 C69.78660415 23.06015181 69.54324833 29.85289614 69.60888672 36.93847656 C69.62498999 38.99871979 69.6089286 41.0570026 69.58984375 43.1171875 C69.57801024 50.59150089 70.23507847 57.50440229 72.16162109 64.7421875 C73.28994519 69.12668277 74.14103803 73.55603568 75 78 C67.13308783 78.1159815 59.26637686 78.20475893 51.39882374 78.25906086 C47.74531107 78.28512695 44.0923844 78.32046776 40.43920898 78.37719727 C36.91191052 78.43162765 33.38517473 78.46144302 29.85748863 78.47438622 C27.86043598 78.48808639 25.86360894 78.52710294 23.86689758 78.56648254 C13.76896393 78.56960612 13.76896393 78.56960612 10.69799805 75.53198242 C9.85748901 74.27865112 9.85748901 74.27865112 9 73 C8.505 72.505 8.505 72.505 8 72 C8.2325424 65.78336651 10.25866872 62.65971302 14.125 58.125 C15.06555752 56.98214379 16.00565394 55.83890795 16.9453125 54.6953125 C17.42774414 54.1168457 17.91017578 53.53837891 18.40722656 52.94238281 C21.34835645 49.35568303 24.16813844 45.67317391 27 42 C25.03994019 42.03927612 25.03994019 42.03927612 23.0402832 42.0793457 C18.18564012 42.16994324 13.33107155 42.22728445 8.47583008 42.2746582 C6.3757673 42.29978051 4.27579177 42.33388458 2.17602539 42.37719727 C-0.8451084 42.43794871 -3.86508496 42.46623263 -6.88671875 42.48828125 C-7.82335861 42.51408768 -8.75999847 42.5398941 -9.72502136 42.56648254 C-14.27444915 42.56843376 -16.341271 42.48833665 -20.09106445 39.70849609 C-22.16773369 36.76201079 -22.75976677 34.70948285 -22.515625 31.09228516 C-21.53486305 27.11258348 -19.07372045 24.2928414 -16.5 21.1875 C-15.3975356 19.79628715 -14.29597677 18.40435622 -13.1953125 17.01171875 C-12.65165039 16.33544434 -12.10798828 15.65916992 -11.54785156 14.96240234 C-8.71419331 11.36982427 -6.13938589 7.59658736 -3.5234375 3.84375 C-3.02070313 3.2353125 -2.51796875 2.626875 -2 2 C-1.34 2 -0.68 2 0 2 C0 1.34 0 0.68 0 0 Z " fill="#022D79" transform="translate(163,164)"/>
<path d="M0 0 C67.815 0.495 67.815 0.495 137 1 C137 1.66 137 2.32 137 3 C137.639375 3.185625 138.27875 3.37125 138.9375 3.5625 C141 5 141 5 141.9375 8.1875 C142.05561812 15.39270555 138.53666205 20.0195393 133.875 25.1875 C132.8737284 26.33499894 131.87506777 27.48478088 130.87890625 28.63671875 C130.38664551 29.20567871 129.89438477 29.77463867 129.38720703 30.36083984 C126.64953454 33.59574536 124.16829599 37.0180991 121.65234375 40.42578125 C118.11223058 45.21918238 114.48797774 49.94895185 110.875 54.6875 C110.20573486 55.56664062 109.53646973 56.44578125 108.84692383 57.3515625 C104.597693 62.92707316 100.31479668 68.47507837 96 74 C87.70597355 71.10813354 78.32350667 67.16654427 72.55776978 60.27655029 C69.3485589 56.46978543 67.02815522 54.55862305 61.98266602 54.11352539 C60.07350016 54.07309462 58.16329401 54.06959757 56.25390625 54.09765625 C55.24279282 54.08536484 54.23167938 54.07307343 53.18992615 54.06040955 C49.98003793 54.02877288 46.77245828 54.04493031 43.5625 54.0625 C41.37823394 54.04938566 39.19398427 54.03314315 37.00976562 54.01367188 C31.67283429 53.97289839 26.3369858 53.97129287 21 54 C21.63908656 50.47141474 22.30319675 48.09445902 24.4375 45.1875 C24.86933594 44.58292969 25.30117188 43.97835937 25.74609375 43.35546875 C26.15988281 42.90816406 26.57367188 42.46085937 27 42 C27.66 42 28.32 42 29 42 C29.18755859 41.12601563 29.18755859 41.12601563 29.37890625 40.234375 C30.56287722 35.97505806 32.07690551 33.22861237 36 31 C41.93872909 30.08885641 48.03312223 30.6059609 54 31 C53.75769653 30.12057739 53.75769653 30.12057739 53.51049805 29.22338867 C52.75607981 25.93764648 52.81563652 22.66544142 52.8125 19.3125 C52.80025391 18.64283203 52.78800781 17.97316406 52.77539062 17.28320312 C52.75941631 11.70816731 53.73144629 7.70849171 55 2 C36.85 2 18.7 2 0 2 C0 1.34 0 0.68 0 0 Z " fill="#88D8D7" transform="translate(365,57)"/>
<path d="M0 0 C3.05270463 0.15811388 3.05270463 0.15811388 6 -1 C9.20395416 -1 11.09399739 -0.25664978 14 1 C13.46917304 6.28703655 10.7343807 10.3732639 8.125 14.875 C5.08302997 20.16118999 2.30384679 25.35009002 0 31 C-0.70572559 32.54286215 -1.41366818 34.08471455 -2.125 35.625 C-3.51789932 38.73509962 -4.56038394 41.5929755 -5 45 C-1.7 45 1.6 45 5 45 C4.75443359 46.71509766 4.75443359 46.71509766 4.50390625 48.46484375 C3.68847351 55.80373844 3.89436516 63.18969863 3.9375 70.5625 C3.9425254 72.06314955 3.94708647 73.56380072 3.95117188 75.06445312 C3.96209424 78.70966977 3.97930144 82.35482422 4 86 C0.93466836 87.53266582 -2.26754272 87.10276471 -5.625 87.0625 C-6.33140625 87.05798828 -7.0378125 87.05347656 -7.765625 87.04882812 C-9.51045275 87.03703875 -11.255237 87.01910324 -13 87 C-11.89352254 99.4187536 -10.56283766 110.66412186 -3 121 C-2.72414063 121.63035156 -2.44828125 122.26070313 -2.1640625 122.91015625 C1.37806268 129.26934071 9.30483971 133.8304876 15.99609375 136.2578125 C22.54673679 137.87630688 29.29140196 138.40852268 36 139 C25.39452625 144.80253506 10.51359419 144.57672274 -0.8125 141.375 C-13.98901665 136.73015692 -23.59087661 128.70637228 -30.0078125 116.16015625 C-41.54014446 91.05236264 -34.87187484 60.02950048 -25.953125 35.0703125 C-23.262013 28.18652601 -19.87222142 21.63155146 -16.5 15.0625 C-16.03706543 14.14960205 -15.57413086 13.2367041 -15.09716797 12.29614258 C-7.38071627 -2.46023876 -7.38071627 -2.46023876 0 0 Z " fill="#042F7B" transform="translate(284,119)"/>
<path d="M0 0 C66.66 0 133.32 0 202 0 C201.67 1.32 201.34 2.64 201 4 C199.34728131 4.99163121 197.68616719 5.97330185 195.9765625 6.86328125 C192.19649252 9.03719501 188.44775164 12.05818817 185.83145523 15.56732273 C183.02810402 17.76027699 180.63768917 17.38091448 177.11859131 17.38768005 C176.062473 17.39575836 176.062473 17.39575836 174.98501897 17.40399987 C172.61971897 17.41833642 170.25497415 17.41116189 167.88964844 17.40405273 C166.19614714 17.40975351 164.50264969 17.41671663 162.80915833 17.42485046 C158.20358581 17.44283378 153.59820329 17.44160328 148.99260616 17.43590808 C145.14829863 17.43282231 141.30402792 17.43890217 137.45972562 17.44494683 C128.38799572 17.45900871 119.31635993 17.45741821 110.24462891 17.44604492 C100.88845607 17.43457412 91.53257022 17.44861809 82.17643523 17.4754414 C74.14403952 17.4976068 66.11173383 17.50423352 58.0793097 17.49836498 C53.28190639 17.49499475 48.48468685 17.49741434 43.68730927 17.51461601 C39.17283367 17.53009541 34.65878224 17.5261186 30.14432335 17.50731087 C28.489553 17.50362709 26.83475117 17.50672732 25.18000984 17.51719666 C22.9159677 17.53042426 20.65332595 17.5188451 18.38934326 17.50120544 C17.12393078 17.50099616 15.8585183 17.50078688 14.55475998 17.50057125 C9.43989639 16.78031062 5.52592389 14.86794132 2.1875 10.78125 C1.795625 10.0284375 1.40375 9.275625 1 8.5 C0.5875 7.7471875 0.175 6.994375 -0.25 6.21875 C-1 4 -1 4 0 0 Z " fill="#8CD9D8" transform="translate(113,58)"/>
<path d="M0 0 C15.09790976 13.76574125 24.33429363 37.93493932 26 58 C26 61.63 26 65.26 26 69 C4.22 69 -17.56 69 -40 69 C-38.8823178 61.17622461 -38.8823178 61.17622461 -36.6875 57.1875 C-34.99279256 53.99381189 -33.56655273 50.9103061 -32.375 47.5 C-27.56265079 35.25906411 -19.35395246 24.2205728 -11.625 13.6875 C-11.04250488 12.89351807 -10.46000977 12.09953613 -9.85986328 11.28149414 C-6.8123775 7.20253138 -3.71449681 3.48494925 0 0 Z " fill="#88E7D1" transform="translate(319,95)"/>
<path d="M0 0 C4.49911447 -0.23376694 8.99665691 -0.37490714 13.5 -0.5 C15.40265625 -0.60054688 15.40265625 -0.60054688 17.34375 -0.703125 C26.67890004 -0.89760729 26.67890004 -0.89760729 30.42114258 1.64501953 C32.42578125 3.7265625 32.42578125 3.7265625 34.24658203 5.92871094 C36.9078047 9.07237748 40.13630243 10.87082259 43.6875 12.875 C44.32494141 13.25140625 44.96238281 13.6278125 45.61914062 14.015625 C48.98799972 15.97644701 52.33550566 17.66873055 56 19 C52.17247783 26.94946912 46.82423543 33.50941268 41.32763672 40.34082031 C40.20480584 41.74404919 39.10204394 43.16330119 38.00390625 44.5859375 C37.44574219 45.27945313 36.88757813 45.97296875 36.3125 46.6875 C35.85488281 47.26886719 35.39726562 47.85023438 34.92578125 48.44921875 C29.20222491 53.05824891 22.35886217 53.51641893 15.3125 53.75 C14.48427734 53.79253906 13.65605469 53.83507812 12.80273438 53.87890625 C6.68706207 54.14331482 6.68706207 54.14331482 3.55029297 53.48901367 C0.84325512 52.96994448 -1.42266898 53.00332347 -4.16796875 53.19140625 C-5.14443359 53.24876953 -6.12089844 53.30613281 -7.12695312 53.36523438 C-9.14812454 53.49550771 -11.16897782 53.63082669 -13.18945312 53.77148438 C-19.7889141 54.14797821 -25.59158643 53.63763703 -32 52 C-34.125 46.375 -34.125 46.375 -33 43 C-33.66868314 39.88667752 -33.66868314 39.88667752 -36.0625 38.8125 C-36.701875 38.544375 -37.34125 38.27625 -38 38 C-36.68823998 36.35357683 -35.3755713 34.70787757 -34.0625 33.0625 C-33.33160156 32.14597656 -32.60070312 31.22945312 -31.84765625 30.28515625 C-30 28 -30 28 -29 27 C-26.66702567 26.95907063 -24.33294775 26.95758277 -22 27 C-22 28.32 -22 29.64 -22 31 C-21.01 31 -20.02 31 -19 31 C-18.608125 30.34 -18.21625 29.68 -17.8125 29 C-16 27 -16 27 -14.03125 26.734375 C-12.01893442 26.74854624 -10.00805287 26.8683244 -8 27 C-7.67 27.66 -7.34 28.32 -7 29 C-6.505 28.67 -6.01 28.34 -5.5 28 C-1.90909106 26.56363642 1.14456127 26.87148538 5 27 C5 27.99 5 28.98 5 30 C4.34 30 3.68 30 3 30 C3.495 31.485 3.495 31.485 4 33 C4.66 33 5.32 33 6 33 C8.73230416 30.09228866 9.42055106 27.87054767 9.6875 23.9375 C9.75324219 23.08027344 9.81898438 22.22304687 9.88671875 21.33984375 C9.97281174 19.56157818 10 17.7803484 10 16 C10 13.33333333 10 10.66666667 10 8 C9.979375 7.13375 9.95875 6.2675 9.9375 5.375 C10 3 10 3 11 2 C5.555 1.505 5.555 1.505 0 1 C0 0.67 0 0.34 0 0 Z " fill="#3E54A8" transform="translate(404,111)"/>
<path d="M0 0 C0.33 0 0.66 0 1 0 C1.01458252 0.56807373 1.02916504 1.13614746 1.04418945 1.72143555 C1.44068231 16.46515078 1.44068231 16.46515078 4.18359375 30.91796875 C4.91261361 33.67010594 5.49991465 36.40077677 6.05102539 39.19262695 C6.2292836 40.09294144 6.40754181 40.99325592 6.59120178 41.92085266 C6.72610519 42.60697128 6.86100861 43.2930899 7 44 C-0.86691217 44.1159815 -8.73362314 44.20475893 -16.60117626 44.25906086 C-20.25468893 44.28512695 -23.9076156 44.32046776 -27.56079102 44.37719727 C-31.08808948 44.43162765 -34.61482527 44.46144302 -38.14251137 44.47438622 C-40.13956402 44.48808639 -42.13639106 44.52710294 -44.13310242 44.56648254 C-54.23103607 44.56960612 -54.23103607 44.56960612 -57.30200195 41.53198242 C-58.14251099 40.27865112 -58.14251099 40.27865112 -59 39 C-59.33 38.67 -59.66 38.34 -60 38 C-59.7674576 31.78336651 -57.74133128 28.65971302 -53.875 24.125 C-52.93444248 22.98214379 -51.99434606 21.83890795 -51.0546875 20.6953125 C-50.54526611 20.11612061 -50.03584473 19.53692871 -49.51098633 18.94018555 C-47.90331353 17.01195428 -47.90331353 17.01195428 -46.80737305 14.56958008 C-45.13119481 11.52669495 -43.90418198 9.95457409 -41 8 C-34.19331714 6.4657435 -26.97730676 7.15908666 -20.0625 7.4375 C-18.11923292 7.48267719 -16.17586545 7.52373613 -14.23242188 7.56054688 C-9.48579369 7.65940427 -4.74400021 7.8145017 0 8 C0 5.36 0 2.72 0 0 Z " fill="#4759AC" transform="translate(231,198)"/>
<path d="M0 0 C38.94 0 77.88 0 118 0 C116.21852423 3.56295153 114.44402044 6.07714393 111.9375 9.125 C109.19551253 12.38551023 109.19551253 12.38551023 107 16 C94.71719908 16.06953005 82.43444504 16.12282667 70.15148735 16.15543652 C64.44792603 16.1710881 58.74449942 16.19231739 53.04101562 16.22631836 C47.53618166 16.25892948 42.03147722 16.27685683 36.52655411 16.28463173 C34.427013 16.29017205 32.32747893 16.30099094 30.22799301 16.31719017 C27.28579167 16.33898747 24.34412465 16.34196593 21.40185547 16.34057617 C20.53510696 16.351362 19.66835846 16.36214783 18.77534485 16.3732605 C13.7644006 16.34767198 10.34151887 15.77847791 6 13 C2 8.68421053 2 8.68421053 2 6 C1.34 6 0.68 6 0 6 C0 4.02 0 2.04 0 0 Z " fill="#8ADCD8" transform="translate(164,89)"/>
<path d="M0 0 C2.625 2.3125 2.625 2.3125 4 4 C2.88625 3.67 1.7725 3.34 0.625 3 C-10.00639664 0.64121152 -22.56258992 0.93119338 -33 4 C-33.96164062 4.27972656 -34.92328125 4.55945312 -35.9140625 4.84765625 C-41.93713153 6.73081834 -47.48067533 9.06081587 -53.0390625 12.046875 C-55 13 -55 13 -57 13 C-57 13.66 -57 14.32 -57 15 C-57.66902344 15.28230469 -58.33804688 15.56460938 -59.02734375 15.85546875 C-65.91663807 19.0088236 -71.70924537 22.81387845 -77.6875 27.4375 C-78.4309668 28.00581543 -79.17443359 28.57413086 -79.94042969 29.15966797 C-82.90811248 31.45806333 -85.70367338 33.69266124 -88.3125 36.3984375 C-91.91222437 40.07315613 -95.22547364 41.33863324 -100.32421875 41.4140625 C-101.80595581 41.43859497 -101.80595581 41.43859497 -103.31762695 41.46362305 C-107.14511945 41.43091988 -110.96043867 41.31174078 -114.78271484 41.11108398 C-116.52002515 41.02404631 -118.2605108 41 -120 41 C-113.03297093 33.79040512 -105.93922929 27.14717228 -98 21 C-97.46987305 20.57750977 -96.93974609 20.15501953 -96.39355469 19.71972656 C-82.80789621 8.92531771 -66.9515297 -0.74438585 -50 -5 C-48.92105469 -5.29390625 -47.84210938 -5.5878125 -46.73046875 -5.890625 C-30.0303814 -10.01410336 -14.9610519 -8.90018781 0 0 Z " fill="#4B5CAE" transform="translate(422,44)"/>
<path d="M0 0 C1.134375 0.020625 2.26875 0.04125 3.4375 0.0625 C3.4375 1.3825 3.4375 2.7025 3.4375 4.0625 C4.4275 4.0625 5.4175 4.0625 6.4375 4.0625 C6.829375 3.4025 7.22125 2.7425 7.625 2.0625 C9.4375 0.0625 9.4375 0.0625 11.40625 -0.203125 C13.41856558 -0.18895376 15.42944713 -0.0691756 17.4375 0.0625 C17.7675 0.7225 18.0975 1.3825 18.4375 2.0625 C18.9325 1.7325 19.4275 1.4025 19.9375 1.0625 C23.52840894 -0.37386358 26.58206127 -0.06601462 30.4375 0.0625 C30.4375 1.0525 30.4375 2.0425 30.4375 3.0625 C29.7775 3.0625 29.1175 3.0625 28.4375 3.0625 C28.9325 4.5475 28.9325 4.5475 29.4375 6.0625 C30.0975 6.0625 30.7575 6.0625 31.4375 6.0625 C32.159375 5.0725 32.88125 4.0825 33.625 3.0625 C34.9296875 1.3984375 34.9296875 1.3984375 36.4375 0.0625 C40.25 -0.3125 40.25 -0.3125 43.4375 0.0625 C42.83415691 3.76753641 41.21275763 5.92218148 38.875 8.8125 C37.91400391 10.01132813 37.91400391 10.01132813 36.93359375 11.234375 C36.43988281 11.83765625 35.94617188 12.4409375 35.4375 13.0625 C36.4275 14.0525 37.4175 15.0425 38.4375 16.0625 C38.06625 16.619375 37.695 17.17625 37.3125 17.75 C35.9668279 20.51933455 35.9668279 20.51933455 38.4375 25.0625 C42.3975 25.0625 46.3575 25.0625 50.4375 25.0625 C50.4375 25.3925 50.4375 25.7225 50.4375 26.0625 C47.3753174 26.25783059 44.31303679 26.44403284 41.25 26.625 C40.38568359 26.68107422 39.52136719 26.73714844 38.63085938 26.79492188 C37.78974609 26.84326172 36.94863281 26.89160156 36.08203125 26.94140625 C35.31221924 26.9885376 34.54240723 27.03566895 33.74926758 27.08422852 C31.4375 27.0625 31.4375 27.0625 28.97021484 26.55810547 C26.26787336 26.0293072 24.01206705 26.06601283 21.26953125 26.25390625 C20.29306641 26.31126953 19.31660156 26.36863281 18.31054688 26.42773438 C16.28937546 26.55800771 14.26852218 26.69332669 12.24804688 26.83398438 C5.6485859 27.21047821 -0.15408643 26.70013703 -6.5625 25.0625 C-8.6875 19.4375 -8.6875 19.4375 -7.5625 16.0625 C-8.23118314 12.94917752 -8.23118314 12.94917752 -10.625 11.875 C-11.264375 11.606875 -11.90375 11.33875 -12.5625 11.0625 C-11.25073998 9.41607683 -9.9380713 7.77037757 -8.625 6.125 C-7.89410156 5.20847656 -7.16320312 4.29195312 -6.41015625 3.34765625 C-3.75670784 0.06590716 -3.75670784 0.06590716 0 0 Z " fill="#20439A" transform="translate(378.5625,137.9375)"/>
<path d="M0 0 C0.66 0.33 1.32 0.66 2 1 C1.30132812 1.59167969 0.60265625 2.18335937 -0.1171875 2.79296875 C-1.02726562 3.58316406 -1.93734375 4.37335938 -2.875 5.1875 C-3.77992188 5.96480469 -4.68484375 6.74210937 -5.6171875 7.54296875 C-8.12252899 9.81515569 -8.12252899 9.81515569 -9.0703125 12.67578125 C-10.243541 15.60885249 -11.20882163 15.70901622 -14 17 C-20.89028973 24.23282804 -26.4400551 32.73237507 -32 41 C-32.763125 40.484375 -33.52625 39.96875 -34.3125 39.4375 C-35.199375 38.963125 -36.08625 38.48875 -37 38 C-38.485 38.495 -38.485 38.495 -40 39 C-43 39 -43 39 -46 38 C-49.38023517 38 -51.83468937 38.87455622 -55 40 C-53.49783611 35.6166365 -51.14590646 32.08661499 -48.4375 28.375 C-47.99422363 27.76325928 -47.55094727 27.15151855 -47.09423828 26.52124023 C-42.94794695 20.84795054 -38.77011231 15.16632685 -34 10 C-33.45279297 9.38527832 -32.90558594 8.77055664 -32.34179688 8.13720703 C-28.58678699 4.33137602 -25.97825636 2.55438222 -20.546875 2.421875 C-18.61288932 2.49545054 -16.67998352 2.60550925 -14.75 2.75 C-12.80802475 2.86243015 -10.86524601 2.96191889 -8.921875 3.046875 C-7.64715332 3.13727051 -7.64715332 3.13727051 -6.34667969 3.22949219 C-3.44599307 2.94582121 -2.15222792 1.90384616 0 0 Z " fill="#22459B" transform="translate(331,81)"/>
<path d="M0 0 C3.05270463 0.15811388 3.05270463 0.15811388 6 -1 C9.20395416 -1 11.09399739 -0.25664978 14 1 C13.46917304 6.28703655 10.7343807 10.3732639 8.125 14.875 C5.08408795 20.1593515 2.28846708 25.34491264 0 31 C-0.5625 32.3125 -1.125 33.625 -1.6875 34.9375 C-2.120625 35.948125 -2.55375 36.95875 -3 38 C-3.515625 37.67644531 -4.03125 37.35289062 -4.5625 37.01953125 C-7.79395534 35.66791291 -10.50532385 35.69860596 -14 35.6875 C-15.216875 35.67074219 -16.43375 35.65398437 -17.6875 35.63671875 C-21.19516804 36.02140404 -22.523304 36.55868537 -25 39 C-26.2516467 41.08334635 -26.2516467 41.08334635 -27 43 C-27.33 42.34 -27.66 41.68 -28 41 C-26.96110682 38.08077092 -25.85061864 35.2782642 -24.625 32.4375 C-24.2643042 31.59429199 -23.9036084 30.75108398 -23.53198242 29.88232422 C-20.98404916 24.02957002 -18.25771251 18.28805111 -15.3125 12.625 C-14.95687988 11.93075928 -14.60125977 11.23651855 -14.23486328 10.52124023 C-11.22054945 4.87965103 -7.26735674 -2.42245225 0 0 Z " fill="#0B3889" transform="translate(284,119)"/>
<path d="M0 0 C4.58978038 -0.0992963 9.17892788 -0.17166748 13.76953125 -0.21972656 C15.32921244 -0.23977222 16.88881913 -0.26701657 18.44824219 -0.30175781 C20.69745314 -0.35059126 22.9456659 -0.37303815 25.1953125 -0.390625 C26.23161301 -0.42159271 26.23161301 -0.42159271 27.28884888 -0.45318604 C33.12957118 -0.45585877 36.42407566 1.7116207 40.6796875 5.4921875 C43.8542263 9.16469317 44.22380659 11.27373138 44 16 C39.28614767 16.12426004 34.5732631 16.21464511 29.8581543 16.2746582 C28.25674823 16.29969279 26.65545518 16.33373162 25.05444336 16.37719727 C22.74304232 16.43834544 20.43316034 16.46631814 18.12109375 16.48828125 C17.0597245 16.52699089 17.0597245 16.52699089 15.97691345 16.56648254 C10.32625329 16.56961996 7.03538207 14.69698687 3 11 C-0.01080134 7.21221766 -0.1107686 4.73698641 0 0 Z " fill="#87D2D9" transform="translate(52,59)"/>
<path d="M0 0 C4.58980814 -0.07447267 9.17926014 -0.12875322 13.76953125 -0.16479492 C15.32916394 -0.17982869 16.88875472 -0.20026135 18.44824219 -0.22631836 C20.69737116 -0.26294211 22.94593847 -0.27978021 25.1953125 -0.29296875 C25.8861795 -0.30845261 26.57704651 -0.32393646 27.28884888 -0.33988953 C33.33650021 -0.34196509 37.1148675 1.53378583 41.8125 5.1875 C44.71299267 8.91670486 44.55809441 11.34811209 45 16 C40.4285302 16.09943798 35.85770025 16.17173349 31.28540039 16.21972656 C29.73255435 16.2397487 28.17978281 16.26697517 26.62719727 16.30175781 C24.38539168 16.3506961 22.14458907 16.37306168 19.90234375 16.390625 C19.21663803 16.41127014 18.53093231 16.43191528 17.82444763 16.45318604 C12.37167223 16.45568153 9.39477493 14.98388972 5 12 C3.22265625 9.74609375 3.22265625 9.74609375 2.0625 7.4375 C1.66160156 6.67308594 1.26070313 5.90867187 0.84765625 5.12109375 C0 3 0 3 0 0 Z " fill="#86D2D9" transform="translate(104,89)"/>
<path d="M0 0 C5.61 0 11.22 0 17 0 C16.83628906 1.22589844 16.67257812 2.45179688 16.50390625 3.71484375 C15.84270887 9.66562018 15.89063739 15.58210983 15.9375 21.5625 C15.94201172 22.66658203 15.94652344 23.77066406 15.95117188 24.90820312 C15.9628486 27.605527 15.97922475 30.30273347 16 33 C18.41213819 34.20606909 19.94899983 34.13784341 22.64431763 34.15821838 C23.62310883 34.1680072 24.60190002 34.17779602 25.61035156 34.18788147 C26.68784668 34.19363693 27.7653418 34.1993924 28.87548828 34.20532227 C30.00719452 34.21522186 31.13890076 34.22512146 32.30490112 34.23532104 C36.06001669 34.26700596 39.81514492 34.29172111 43.5703125 34.31640625 C46.16820614 34.33696974 48.76609638 34.35796604 51.36398315 34.37937927 C57.5121063 34.42900647 63.66024751 34.47425556 69.80841911 34.51740164 C76.80715411 34.56675969 83.80584194 34.62168312 90.80453134 34.67708123 C105.20297659 34.79092702 119.60146789 34.8977604 134 35 C134 35.33 134 35.66 134 36 C93.74 36 53.48 36 12 36 C11.67 36.66 11.34 37.32 11 38 C7.9989162 32.76886183 5.2589285 27.59353725 3 22 C2.62875 21.154375 2.2575 20.30875 1.875 19.4375 C-0.41632241 13.05453042 -0.08166096 6.69619858 0 0 Z " fill="#1E4297" transform="translate(271,206)"/>
<path d="M0 0 C-0.61036016 3.35885602 -1.80135086 5.35132579 -3.9140625 8.01171875 C-4.51089844 8.77033203 -5.10773438 9.52894531 -5.72265625 10.31054688 C-6.35042969 11.09494141 -6.97820312 11.87933594 -7.625 12.6875 C-8.22957031 13.45255859 -8.83414062 14.21761719 -9.45703125 15.00585938 C-10.67766651 16.55052254 -11.90064835 18.09333429 -13.12597656 19.63427734 C-16.1106701 23.40208355 -19.0556653 27.20062146 -22 31 C-23.32 30.67 -24.64 30.34 -26 30 C-26 20.33333333 -26 10.66666667 -26 1 C-22.9792807 0.83100871 -19.95845177 0.66473871 -16.9375 0.5 C-16.08994141 0.45230469 -15.24238281 0.40460938 -14.36914062 0.35546875 C-9.57055312 0.09608564 -4.80550212 -0.05216285 0 0 Z " fill="#344DA4" transform="translate(410,163)"/>
<path d="M0 0 C-0.59842277 3.16495294 -1.57915019 5.05183243 -3.6171875 7.53125 C-4.14183594 8.17707031 -4.66648437 8.82289062 -5.20703125 9.48828125 C-5.75746094 10.15214844 -6.30789063 10.81601563 -6.875 11.5 C-7.95616267 12.82256241 -9.03690431 14.14546913 -10.1171875 15.46875 C-10.6320874 16.08266602 -11.1469873 16.69658203 -11.67749023 17.32910156 C-13.11888204 19.0535913 -13.11888204 19.0535913 -14.33984375 21.453125 C-16.79884487 23.74433545 -19.03998158 23.40716521 -22.30664062 23.3515625 C-23.48516602 23.30128906 -23.48516602 23.30128906 -24.6875 23.25 C-25.48478516 23.23195313 -26.28207031 23.21390625 -27.10351562 23.1953125 C-29.06952449 23.14822247 -31.03491494 23.07647899 -33 23 C-31.71106771 20.94423457 -30.38166974 18.93151064 -29.00390625 16.93359375 C-27.93897341 15.3745985 -26.88229765 13.8084024 -25.89404297 12.19970703 C-18.80082537 0.68314131 -13.45329945 -2.12687043 0 0 Z " fill="#F8F9FA" transform="translate(436,88)"/>
<path d="M0 0 C12.21 0 24.42 0 37 0 C33.79896898 4.00128877 31.17553398 6.68141933 27.25 9.8125 C26.26515625 10.60269531 25.2803125 11.39289063 24.265625 12.20703125 C23.51796875 12.79871094 22.7703125 13.39039062 22 14 C17.40538023 11.769495 13.10633274 9.09554365 8.75 6.4375 C7.90953125 5.93025391 7.0690625 5.42300781 6.203125 4.90039062 C5.4090625 4.41634766 4.615 3.93230469 3.796875 3.43359375 C3.06823242 2.99072021 2.33958984 2.54784668 1.58886719 2.09155273 C1.06454102 1.73134033 0.54021484 1.37112793 0 1 C0 0.67 0 0.34 0 0 Z " fill="#04327D" transform="translate(277,59)"/>
<path d="M0 0 C-0.66269061 1.66825159 -1.33005782 3.33464728 -2 5 C-2.35964844 5.99966797 -2.35964844 5.99966797 -2.7265625 7.01953125 C-3.92438178 9.4099619 -4.73537308 10.51265691 -7 12 C-12.39543025 12.6181699 -17.59432927 12.40018479 -23 12 C-22.2814718 7.99973243 -21.59309165 4.71320496 -19.20703125 1.3828125 C-13.88438333 -1.95208549 -6.02795625 -0.41870038 0 0 Z " fill="#F3F3F7" transform="translate(409,99)"/>
<path d="M0 0 C0.78826172 0.02707031 1.57652344 0.05414063 2.38867188 0.08203125 C4.32280157 0.15236324 6.25551304 0.25997542 8.1875 0.375 C6.8647113 2.38198975 5.52966975 4.38091923 4.1875 6.375 C3.77886719 7.15359375 3.37023437 7.9321875 2.94921875 8.734375 C0.53938255 10.97856835 -1.5745954 10.78428334 -4.76367188 10.7265625 C-5.50166016 10.69304687 -6.23964844 10.65953125 -7 10.625 C-7.74958984 10.60695313 -8.49917969 10.58890625 -9.27148438 10.5703125 C-11.1190371 10.52324109 -12.96593159 10.45149766 -14.8125 10.375 C-14.40672372 6.85827221 -12.75571596 4.24047871 -10.44384766 1.59667969 C-7.29204473 -0.76363486 -3.76903188 -0.24642455 0 0 Z " fill="#F0F0F5" transform="translate(409.8125,87.625)"/>
<path d="M0 0 C2.7885289 -0.22107787 5.34653181 -0.28107535 8.125 -0.1875 C8.87910156 -0.17396484 9.63320313 -0.16042969 10.41015625 -0.14648438 C12.27374127 -0.11109985 14.13695978 -0.05729167 16 0 C15.37224433 1.35208914 14.69580267 2.68163705 14 4 C13.44892578 5.10601562 13.44892578 5.10601562 12.88671875 6.234375 C10.3930676 8.56797814 8.36699237 8.41161977 5.04882812 8.3515625 C4.31083984 8.31804687 3.57285156 8.28453125 2.8125 8.25 C2.06291016 8.23195313 1.31332031 8.21390625 0.54101562 8.1953125 C-1.3065371 8.14824109 -3.15343159 8.07649766 -5 8 C-3.38731308 5.28775382 -1.75098126 2.62647188 0 0 Z " fill="#F7F8FA" transform="translate(427,103)"/>
<path d="M0 0 C2.97 0 5.94 0 9 0 C8.83628906 1.26714844 8.67257812 2.53429688 8.50390625 3.83984375 C7.92021092 9.09310173 7.88714051 14.28250085 7.9375 19.5625 C7.94201172 20.47580078 7.94652344 21.38910156 7.95117188 22.33007812 C7.96281238 24.55341452 7.98074153 26.77671654 8 29 C2.06 29 -3.88 29 -10 29 C-10 28.67 -10 28.34 -10 28 C-3.565 27.505 -3.565 27.505 3 27 C3.8412444 21.95253361 3.97230031 20.49688893 3 16 C3.33 15.01 3.66 14.02 4 13 C3.7525 11.7625 3.7525 11.7625 3.5 10.5 C3 8 3 8 4 5 C3.24849977 1.72226496 3.24849977 1.72226496 0 0 Z " fill="#3552A5" transform="translate(411,59)"/>
<path d="M0 0 C0.69738281 0.01804687 1.39476562 0.03609375 2.11328125 0.0546875 C3.82611539 0.10161446 5.53823824 0.17335395 7.25 0.25 C5.79510871 3.64474635 4.21016679 6.00504129 1.25 8.25 C-2.203125 8.640625 -2.203125 8.640625 -6 8.5 C-7.26328125 8.46390625 -8.5265625 8.4278125 -9.828125 8.390625 C-11.27445312 8.32101563 -11.27445312 8.32101563 -12.75 8.25 C-12.3783926 5.64874823 -11.70071443 4.18021944 -10.171875 2.015625 C-6.85293246 -0.40399117 -3.93465824 -0.19338585 0 0 Z " fill="#F2F7F9" transform="translate(442.75,93.75)"/>
<path d="M0 0 C1.19625 0.165 2.3925 0.33 3.625 0.5 C3.625 1.49 3.625 2.48 3.625 3.5 C2.965 3.5 2.305 3.5 1.625 3.5 C1.3775 4.056875 1.13 4.61375 0.875 5.1875 C-0.69021926 8.08315563 -1.96544436 10.21726308 -4.375 12.5 C-7.17533987 12.9345355 -9.51735311 12.73813724 -12.375 12.5 C-6.32859212 -0.04488363 -6.32859212 -0.04488363 0 0 Z " fill="#E6E6F0" transform="translate(405.375,137.5)"/>
<path d="M0 0 C-0.96487538 4.86823485 -3.23552755 8.74675221 -7 12 C-10.11346666 12.66934462 -12.86954011 12.50087358 -16 12 C-15.06692579 10.55962331 -14.12834923 9.12281015 -13.1875 7.6875 C-12.66542969 6.88699219 -12.14335937 6.08648437 -11.60546875 5.26171875 C-8.00898847 0.19514434 -6.37271893 -0.36071994 0 0 Z " fill="#EAEAF2" transform="translate(422,138)"/>
<path d="M0 0 C1.03125 0.144375 2.0625 0.28875 3.125 0.4375 C2.17248547 5.29860862 -0.18649199 9.1343585 -3.875 12.4375 C-6.84170359 13.14056081 -8.79424829 12.86243127 -11.875 12.4375 C-9.99496419 6.23338184 -6.66915102 0.75296866 0 0 Z " fill="#EEEDF4" transform="translate(391.875,137.5625)"/>
<path d="M0 0 C-0.96487538 4.86823485 -3.23552755 8.74675221 -7 12 C-10.11346666 12.66934462 -12.86954011 12.50087358 -16 12 C-15.06692579 10.55962331 -14.12834923 9.12281015 -13.1875 7.6875 C-12.66542969 6.88699219 -12.14335937 6.08648437 -11.60546875 5.26171875 C-8.00898847 0.19514434 -6.37271893 -0.36071994 0 0 Z " fill="#E9E8F1" transform="translate(382,138)"/>
<path d="M0 0 C1.03125 0.165 2.0625 0.33 3.125 0.5 C2.17248547 5.36110862 -0.18649199 9.1968585 -3.875 12.5 C-6.84170359 13.20306081 -8.79424829 12.92493127 -11.875 12.5 C-6.26626394 0.80855019 -6.26626394 0.80855019 0 0 Z " fill="#F1F1F6" transform="translate(431.875,137.5)"/>
<path d="M0 0 C1.93166016 0.01740234 1.93166016 0.01740234 3.90234375 0.03515625 C5.19269531 0.04417969 6.48304688 0.05320312 7.8125 0.0625 C8.81152344 0.07410156 9.81054688 0.08570312 10.83984375 0.09765625 C10.50984375 1.74765625 10.17984375 3.39765625 9.83984375 5.09765625 C4.88984375 5.09765625 -0.06015625 5.09765625 -5.16015625 5.09765625 C-3.91599555 0.12101346 -3.91599555 0.12101346 0 0 Z " fill="#F0F7F8" transform="translate(442.16015625,87.90234375)"/>
<path d="M0 0 C0.33 0.99 0.66 1.98 1 3 C-0.42507247 5.17987781 -1.85848572 7.11892963 -3.5 9.125 C-3.95616699 9.69887451 -4.41233398 10.27274902 -4.88232422 10.86401367 C-5.80790191 12.02788945 -6.73742183 13.18864127 -7.67089844 14.34619141 C-9.51866824 16.64538182 -11.32158128 18.97844573 -13.125 21.3125 C-14.08296101 22.54195687 -15.04113125 23.77125097 -16 25 C-16 20.0754853 -12.7673933 16.97812786 -10 13 C-14.95 13 -19.9 13 -25 13 C-24.67 12.01 -24.34 11.02 -24 10 C-24 10.66 -24 11.32 -24 12 C-13.84900686 12.77728414 -13.84900686 12.77728414 -5.15625 8.484375 C-3.20642901 5.72919316 -1.51061387 3.01625861 0 0 Z " fill="#7E85BF" transform="translate(419,86)"/>
<path d="M0 0 C0.99 0.33 1.98 0.66 3 1 C2.34 2.32 1.68 3.64 1 5 C5.62 5 10.24 5 15 5 C14.67 5.99 14.34 6.98 14 8 C14 7.34 14 6.68 14 6 C5.04428952 5.64673049 5.04428952 5.64673049 -3.109375 8.40234375 C-4.6175126 10.1826822 -4.6175126 10.1826822 -6 13 C-6.66 12.67 -7.32 12.34 -8 12 C-7.50628906 11.38511719 -7.01257813 10.77023438 -6.50390625 10.13671875 C-5.54291016 8.92435547 -5.54291016 8.92435547 -4.5625 7.6875 C-3.92441406 6.88699219 -3.28632813 6.08648437 -2.62890625 5.26171875 C-0.83888645 3.01302723 -0.83888645 3.01302723 0 0 Z " fill="#AADCE2" transform="translate(436,88)"/>
<path d="M0 0 C0.66 0.66 1.32 1.32 2 2 C2.99 2.33 3.98 2.66 5 3 C3.90751403 4.50852857 2.80061501 6.00662831 1.6875 7.5 C1.07261719 8.3353125 0.45773437 9.170625 -0.17578125 10.03125 C-0.77777344 10.6809375 -1.37976563 11.330625 -2 12 C-5 12 -5 12 -7 11 C-6.57847656 10.45730469 -6.15695312 9.91460937 -5.72265625 9.35546875 C-5.17480469 8.64003906 -4.62695312 7.92460937 -4.0625 7.1875 C-3.51722656 6.47980469 -2.97195313 5.77210938 -2.41015625 5.04296875 C-0.83143752 2.95874948 -0.83143752 2.95874948 0 0 Z " fill="#465AA7" transform="translate(395,138)"/>
<path d="M0 0 C0.66 0.33 1.32 0.66 2 1 C-0.05336006 3.13453242 -2.11680465 5.25739569 -4.1875 7.375 C-4.76564453 7.97828125 -5.34378906 8.5815625 -5.93945312 9.203125 C-9.08031481 12.39722163 -11.56898144 14.74829984 -16 16 C-11.17917294 10.03739811 -5.77505724 5.03320206 0 0 Z " fill="#5867B0" transform="translate(318,70)"/>
<path d="M0 0 C0.99 0.99 1.98 1.98 3 3 C1.625 4.5 1.625 4.5 0 6 C-1.66666667 6 -3.33333333 6 -5 6 C-3.35 4.02 -1.7 2.04 0 0 Z " fill="#5564AE" transform="translate(406,143)"/>
<path d="M0 0 C0.99 0 1.98 0 3 0 C2.67 1.65 2.34 3.3 2 5 C1.01 5 0.02 5 -1 5 C-3.15028304 5.94978897 -3.15028304 5.94978897 -5 7 C-4.24172908 5.82512964 -3.46792245 4.66027408 -2.6875 3.5 C-2.25824219 2.8503125 -1.82898438 2.200625 -1.38671875 1.53125 C-0.70029297 0.77328125 -0.70029297 0.77328125 0 0 Z " fill="#5F6BB3" transform="translate(420,142)"/>
<path d="M0 0 C0.33 0.99 0.66 1.98 1 3 C-0.375 4.5 -0.375 4.5 -2 6 C-3.66666667 6 -5.33333333 6 -7 6 C-2.25 1.125 -2.25 1.125 0 0 Z " fill="#4157A4" transform="translate(383,141)"/>
<path d="M0 0 C1.051875 0.12375 2.10375 0.2475 3.1875 0.375 C3.1875 0.705 3.1875 1.035 3.1875 1.375 C1.82625 1.74625 1.82625 1.74625 0.4375 2.125 C-2.91601489 3.41481342 -4.48958236 4.69471042 -6.8125 7.375 C-7.4725 7.045 -8.1325 6.715 -8.8125 6.375 C-4.75096154 0.46730769 -4.75096154 0.46730769 0 0 Z " fill="#D9D9E8" transform="translate(431.8125,137.625)"/>
<path d="M0 0 C1.0725 0.103125 2.145 0.20625 3.25 0.3125 C3.25 0.6425 3.25 0.9725 3.25 1.3125 C2.321875 1.580625 1.39375 1.84875 0.4375 2.125 C-2.51240366 3.22398371 -3.80615186 3.93668561 -5.75 6.3125 C-6.41 5.9825 -7.07 5.6525 -7.75 5.3125 C-5.36605526 1.49818842 -4.61542062 0.38461838 0 0 Z " fill="#D8D7E6" transform="translate(391.75,137.6875)"/>
<path d="M0 0 C0.66 0.66 1.32 1.32 2 2 C1.625 4.625 1.625 4.625 1 7 C0.34 7 -0.32 7 -1 7 C-1.625 5.1875 -1.625 5.1875 -2 3 C-1.34 2.01 -0.68 1.02 0 0 Z " fill="#022E7C" transform="translate(324,91)"/>
</svg>
